# xmcd
#
# Track frame offsets: 
#        150
#        10826
#        22588
#        36905
#        49612
#        58101
#        72329
#        88500
#        100682
#        114239
#        128619
#        137793
#        151943
#        163215
#        180091
#        192183
#        204213
#        218298
#        230452
#        243330
#        258306
#        272604
#        285634
#        296870
#        305689
#
# Disc length: 4214 seconds
#
# Revision: 0
# Processed by: cddbd v1.5.2PL0 Copyright (c) Steve Scherf et al.
# Submitted via: ExactAudioCopyFreeDBPlugin 1.0
#
DISCID=4c107419
DTITLE=Various Artist - The Best Of Chess Records And Associated Labe
DTITLE=ls
DYEAR=2013
DGENRE=Blues
TTITLE0=Lee Andrews - Teardrops
TTITLE1=The Ravens - A Simple Prayer
TTITLE2=Paul Gayten - Driving Home
TTITLE3=Clifton Chenier - The Big Wheel
TTITLE4=Clarence 'Frogman' Henry - I'm A Country Boy
TTITLE5=Jody Williams - You May
TTITLE6=Ahmad Jamal Trio - But Not For Me
TTITLE7=The Pastels - Been So Long
TTITLE8=The Flamingos - A Kiss From Your Lips
TTITLE9=Ramsey Lewis Trio - C.C. Rider
TTITLE10=Sugarpie Desanto - It Won't Be Long
TTITLE11=Etta James - I Just Want To Make Love To You
TTITLE12=The Students - I'm So Young
TTITLE13=Al Grey - Rompin'
TTITLE14=Rusty York - Sugaree
TTITLE15=Chuck Berry - Johnny B. Goode
TTITLE16=Little Walter and His Dukes - Blues With A Feeling
TTITLE17=Eugene Fox - Stay At Home
TTITLE18=Jimmy Witherspoon - When The Lights Go Out
TTITLE19=The Teasers - I Was A Fool To Let You Go
TTITLE20=Lowell Fulson - Reconsider Baby
TTITLE21=Sonny Boy Williamson - Let Me Explain
TTITLE22=Bo Diddley - Who Do You Love?
TTITLE23=Gene Simmons - Bas Boy Willie
TTITLE24=Little Milton - Satisfied
EXTD=
EXTT0=
EXTT1=
EXTT2=
EXTT3=
EXTT4=
EXTT5=
EXTT6=
EXTT7=
EXTT8=
EXTT9=
EXTT10=
EXTT11=
EXTT12=
EXTT13=
EXTT14=
EXTT15=
EXTT16=
EXTT17=
EXTT18=
EXTT19=
EXTT20=
EXTT21=
EXTT22=
EXTT23=
EXTT24=
PLAYORDER=
